<svg width="54" height="44" viewBox="0 0 54 44" fill="none" xmlns="http://www.w3.org/2000/svg">
    <path d="M45 0.666664C49.7864 0.666664 53.6666 4.54686 53.6666 9.33333V34.6789C53.6666 39.4654 49.7864 43.3456 45 43.3456H8.99998C4.21351 43.3456 0.333313 39.4654 0.333313 34.6789V9.33333C0.333313 4.71191 3.95053 0.935341 8.50818 0.680383L8.99998 0.666664H45ZM45 4.66666H8.99998L8.61724 4.68213C6.21894 4.87682 4.33331 6.88487 4.33331 9.33333V34.6789C4.33331 37.2562 6.42265 39.3456 8.99998 39.3456H45C47.5773 39.3456 49.6666 37.2562 49.6666 34.6789V9.33333C49.6666 6.756 47.5773 4.66666 45 4.66666ZM19.6735 23.3333C20.7781 23.3333 21.6735 24.2288 21.6735 25.3333V26.8858C21.6735 30.2779 19.0909 32 15.0034 32C10.9157 32 8.33331 30.2763 8.33331 26.8828V25.3333C8.33331 24.2288 9.22874 23.3333 10.3333 23.3333H19.6735ZM23.8893 23.3296L27.6666 23.3333C28.7712 23.3333 29.6666 24.2288 29.6666 25.3333V26.2205C29.6666 28.7899 27.6267 30 24.6666 30C24.3569 30 24.0573 29.9867 23.769 29.9601C24.0676 29.2429 24.254 28.4429 24.3166 27.5618L24.3402 26.8858V25.3333C24.3402 24.6161 24.1784 23.9367 23.8893 23.3296ZM35.6658 23.3333H43.6666C44.7712 23.3333 45.6666 24.2288 45.6666 25.3333C45.6666 26.3459 44.9142 27.1826 43.938 27.3151L43.6666 27.3333H35.6658C34.5612 27.3333 33.6658 26.4379 33.6658 25.3333C33.6658 24.3208 34.4182 23.484 35.3944 23.3516L35.6658 23.3333ZM15.0019 12.6667C17.2121 12.6667 19.0038 14.4584 19.0038 16.6686C19.0038 18.8788 17.2121 20.6705 15.0019 20.6705C12.7917 20.6705 11 18.8788 11 16.6686C11 14.4584 12.7917 12.6667 15.0019 12.6667ZM25.32 14.006C27.1576 14.006 28.6473 15.4957 28.6473 17.3333C28.6473 19.171 27.1576 20.6607 25.32 20.6607C23.4823 20.6607 21.9926 19.171 21.9926 17.3333C21.9926 15.4957 23.4823 14.006 25.32 14.006ZM35.6658 15.3333H43.6666C44.7712 15.3333 45.6666 16.2288 45.6666 17.3333C45.6666 18.3459 44.9142 19.1826 43.938 19.3151L43.6666 19.3333H35.6658C34.5612 19.3333 33.6658 18.4379 33.6658 17.3333C33.6658 16.3208 34.4182 15.484 35.3944 15.3516L35.6658 15.3333Z" fill="white"/>
    </svg>
    