<svg width="20" height="20" viewBox="0 0 20 20" fill="none" xmlns="http://www.w3.org/2000/svg">
    <path
        d="M19.7092 0.29502C19.8041 0.3904 19.8757 0.50014 19.9241 0.61722C19.9727 0.73425 19.9996 0.8625 20 0.997V1V7C20 7.55228 19.5523 8 19 8C18.4477 8 18 7.55228 18 7V3.41421L12.7071 8.7071C12.3166 9.0976 11.6834 9.0976 11.2929 8.7071C10.9024 8.3166 10.9024 7.68342 11.2929 7.29289L16.5858 2H13C12.4477 2 12 1.55228 12 1C12 0.44772 12.4477 0 13 0H18.9998C19.2749 0 19.5242 0.11106 19.705 0.29078L19.7092 0.29502Z"
        fill="white" />
    <path
        d="M8.7071 12.7071L3.41421 18H7C7.55228 18 8 18.4477 8 19C8 19.5523 7.55228 20 7 20H1.00069H0.997C0.74301 19.9992 0.48924 19.9023 0.29502 19.7092L0.29078 19.705C0.19595 19.6096 0.12432 19.4999 0.0758801 19.3828C0.0269901 19.2649 0 19.1356 0 19V13C0 12.4477 0.44772 12 1 12C1.55228 12 2 12.4477 2 13V16.5858L7.29289 11.2929C7.68342 10.9024 8.3166 10.9024 8.7071 11.2929C9.0976 11.6834 9.0976 12.3166 8.7071 12.7071Z"
        fill="white" />
</svg>
    