<svg width="20" height="20" viewBox="0 0 20 20" fill="none" xmlns="http://www.w3.org/2000/svg">
    <path
        d="M19.7071 1.70711L14.4142 7H18C18.5523 7 19 7.44772 19 8C19 8.5523 18.5523 9 18 9H12.0007H11.997C11.743 8.9992 11.4892 8.9023 11.295 8.7092L11.2908 8.705C11.196 8.6096 11.1243 8.4999 11.0759 8.3828C11.0273 8.2657 11.0004 8.1375 11 8.003V8V2C11 1.44772 11.4477 1 12 1C12.5523 1 13 1.44772 13 2V5.58579L18.2929 0.29289C18.6834 -0.09763 19.3166 -0.09763 19.7071 0.29289C20.0976 0.68342 20.0976 1.31658 19.7071 1.70711Z"
        fill="white" />
    <path
        d="M7 18C7 18.5523 7.44772 19 8 19C8.5523 19 9 18.5523 9 18V12.0007V11.997C8.9992 11.7231 8.8883 11.4752 8.7092 11.295L8.705 11.2908C8.6096 11.196 8.4999 11.1243 8.3828 11.0759C8.2657 11.0273 8.1375 11.0004 8.003 11H8H2C1.44772 11 1 11.4477 1 12C1 12.5523 1.44772 13 2 13H5.58579L0.29289 18.2929C-0.09763 18.6834 -0.09763 19.3166 0.29289 19.7071C0.68342 20.0976 1.31658 20.0976 1.70711 19.7071L7 14.4142V18Z"
        fill="white" />
</svg>
    