<svg width="21" height="13" viewBox="0 0 21 13" fill="none" xmlns="http://www.w3.org/2000/svg">
    <path d="M10.3 12.64C4.7 12.64 0.38 7.08 0.18 6.84C-0.06 6.52 -0.06 6.12 0.18 5.8C0.38 5.56 4.7 0 10.3 0C15.9 0 20.22 5.56 20.42 5.8C20.66 6.12 20.66 6.52 20.42 6.84C20.22 7.08 15.86 12.64 10.3 12.64ZM1.94 6.32C3.1 7.64 6.46 10.96 10.3 10.96C14.14 10.96 17.5 7.64 18.66 6.32C17.5 5 14.14 1.68 10.3 1.68C6.46 1.68 3.1 5 1.94 6.32ZM10.3 10.32C8.1 10.32 6.3 8.52 6.3 6.32C6.3 4.12 8.1 2.32 10.3 2.32C12.5 2.32 14.3 4.12 14.3 6.32C14.3 8.52 12.46 10.32 10.3 10.32ZM10.3 4C9.02 4 7.98 5.04 7.98 6.32C7.98 7.6 9.02 8.64 10.3 8.64C11.58 8.64 12.62 7.6 12.62 6.32C12.62 5.04 11.58 4 10.3 4Z" fill="white"/>
    </svg>
    