<svg width="31" height="31" viewBox="0 0 31 31" fill="none" xmlns="http://www.w3.org/2000/svg">
    <g clip-path="url(#clip0_1_66)">
    <path d="M19.3672 12.9167C19.406 12.9167 19.4447 12.9231 19.5067 12.9296C20.1577 12.9942 20.6667 13.556 20.6667 14.2083V21.9583C20.6667 22.6106 20.1577 23.1725 19.4783 23.2397L19.375 23.25H10.6627L9.9355 23.879L6.45833 26.8847V23.25H3.875C3.17492 23.25 2.58333 22.6584 2.58333 21.9583V14.2083C2.58333 13.5082 3.17492 12.9167 3.875 12.9167H19.3672ZM19.375 10.3333H3.875C1.74375 10.3333 0 12.0771 0 14.2083V21.9583C0 24.0896 1.74375 25.8333 3.875 25.8333V29.7083C3.875 30.2121 4.17208 30.6771 4.62417 30.8837C4.805 30.9612 4.98583 31 5.16667 31C5.47667 31 5.77375 30.8967 6.00625 30.69L11.625 25.8333H19.375C19.5042 25.8333 19.6462 25.8204 19.7625 25.8075C21.7129 25.6137 23.25 23.9604 23.25 21.9583V14.2083C23.25 12.2062 21.7129 10.5529 19.7625 10.3592C19.6462 10.3462 19.5042 10.3333 19.375 10.3333Z" fill="#1D1B20"/>
    <path d="M31 3.875V11.625C31 13.7562 29.2562 15.5 27.125 15.5C26.4146 15.5 25.8333 14.9187 25.8333 14.2083C25.8333 13.4979 26.4146 12.9167 27.125 12.9167C27.8225 12.9167 28.4167 12.3225 28.4167 11.625V3.875C28.4167 3.1775 27.8225 2.58333 27.125 2.58333H11.625C10.9275 2.58333 10.3333 3.1775 10.3333 3.875V6.45833C10.3333 7.16875 9.75208 7.75 9.04167 7.75C8.33125 7.75 7.75 7.16875 7.75 6.45833V3.875C7.75 1.74375 9.49375 0 11.625 0H27.125C29.2562 0 31 1.74375 31 3.875Z" fill="#1D1B20"/>
    </g>
    <defs>
    <clipPath id="clip0_1_66">
    <rect width="31" height="31" fill="white"/>
    </clipPath>
    </defs>
    </svg>
    