<svg width="31" height="31" viewBox="0 0 31 31" fill="none" xmlns="http://www.w3.org/2000/svg">
    <g clip-path="url(#clip0_1_82)">
    <path d="M30.6254 13.2912L25.4588 8.12458C25.2134 7.87917 24.8775 7.75 24.5417 7.75H15.5C14.0792 7.75 12.9167 8.9125 12.9167 10.3333V28.4167C12.9167 29.8375 14.0792 31 15.5 31H28.4167C29.8375 31 31 29.8375 31 28.4167V14.2083C31 13.8725 30.8709 13.5367 30.6254 13.2912ZM24.5417 10.8758L27.8742 14.2083H25.1875C24.8259 14.2083 24.5417 13.9242 24.5417 13.5625V10.8758ZM28.4167 27.7708C28.4167 28.1325 28.1325 28.4167 27.7709 28.4167H16.1459C15.7842 28.4167 15.5 28.1325 15.5 27.7708V10.9792C15.5 10.6175 15.7842 10.3333 16.1459 10.3333H21.3125C21.6742 10.3333 21.9584 10.6175 21.9584 10.9792V12.9167H19.375C18.6646 12.9167 18.0834 13.4979 18.0834 14.2083C18.0834 14.9187 18.6646 15.5 19.375 15.5H22.3071C22.7592 16.275 23.5859 16.7917 24.5417 16.7917H27.7709C28.1325 16.7917 28.4167 17.0758 28.4167 17.4375V27.7708Z" fill="#1D1B20"/>
    <path d="M16.7917 2.58333V3.875C16.7917 4.58542 16.2104 5.16667 15.5 5.16667C14.7896 5.16667 14.2083 4.58542 14.2083 3.875V3.22917C14.2083 2.8675 13.9242 2.58333 13.5625 2.58333H12.9038H3.22917C2.8675 2.58333 2.58333 2.8675 2.58333 3.22917V20.0208C2.58333 20.3825 2.8675 20.6667 3.22917 20.6667H9.0675C9.765 20.6796 10.3333 21.2608 10.3333 21.9583C10.3333 22.6558 9.765 23.2371 9.0675 23.25H2.59625C1.1625 23.25 0 22.0875 0 20.6667V2.58333C0 1.1625 1.1625 0 2.59625 0H14.1954C15.6292 0 16.7917 1.1625 16.7917 2.58333ZM24.5417 25.8333H19.375C18.6607 25.8333 18.0833 25.256 18.0833 24.5417C18.0833 23.8274 18.6607 23.25 19.375 23.25H24.5417C25.256 23.25 25.8333 23.8274 25.8333 24.5417C25.8333 25.256 25.256 25.8333 24.5417 25.8333ZM24.5417 20.6667H19.375C18.6607 20.6667 18.0833 20.0893 18.0833 19.375C18.0833 18.6607 18.6607 18.0833 19.375 18.0833H24.5417C25.256 18.0833 25.8333 18.6607 25.8333 19.375C25.8333 20.0893 25.256 20.6667 24.5417 20.6667Z" fill="#1D1B20"/>
    <path d="M9.04169 7.74999H6.45835C5.74406 7.74999 5.16669 7.17261 5.16669 6.45832C5.16669 5.74403 5.74406 5.16666 6.45835 5.16666H9.04169C9.75598 5.16666 10.3334 5.74403 10.3334 6.45832C10.3334 7.17261 9.75598 7.74999 9.04169 7.74999ZM9.04169 18.0833H6.45835C5.74406 18.0833 5.16669 17.5059 5.16669 16.7917C5.16669 16.0774 5.74406 15.5 6.45835 15.5H9.04169C9.75598 15.5 10.3334 16.0774 10.3334 16.7917C10.3334 17.5059 9.75598 18.0833 9.04169 18.0833ZM9.04169 12.9167H6.45835C5.74406 12.9167 5.16669 12.3393 5.16669 11.625C5.16669 10.9107 5.74406 10.3333 6.45835 10.3333H9.04169C9.75598 10.3333 10.3334 10.9107 10.3334 11.625C10.3334 12.3393 9.75598 12.9167 9.04169 12.9167Z" fill="#1D1B20"/>
    </g>
    <defs>
    <clipPath id="clip0_1_82">
    <rect width="31" height="31" fill="white"/>
    </clipPath>
    </defs>
    </svg>
    