<svg width="31" height="31" viewBox="0 0 31 31" fill="none" xmlns="http://www.w3.org/2000/svg">
    <path d="M26.9538 27.5512C26.9538 27.8561 26.8118 28.1485 26.559 28.3641C26.3063 28.5797 25.9635 28.7008 25.6061 28.7008H4.04306C3.68563 28.7008 3.34284 28.5797 3.0901 28.3641C2.83736 28.1485 2.69538 27.8561 2.69538 27.5512V3.40941H16.1723V1.1102H0V27.5512C0 28.4659 0.425964 29.3431 1.18419 29.9899C1.94241 30.6366 2.97078 31 4.04306 31H25.6061C26.6784 31 27.7067 30.6366 28.4649 29.9899C29.2232 29.3431 29.6491 28.4659 29.6491 27.5512V12.6063H26.9538V27.5512Z" fill="#1D1B20" stroke="black" stroke-width="0.00064"/>
    <path d="M29.8109 0.972248C29.0396 0.348002 28.017 0 26.9538 0C25.8906 0 24.8679 0.348002 24.0967 0.972248L16.1723 7.72044L14.8246 13.8134L21.8999 12.6063L29.8109 5.85808C30.1878 5.53767 30.4869 5.15695 30.6909 4.73774C30.895 4.31853 31 3.86908 31 3.41516C31 2.96125 30.895 2.5118 30.6909 2.09259C30.4869 1.67338 30.1878 1.29266 29.8109 0.972248ZM20.5657 10.4795L18.1938 10.8819L18.6655 8.85856L23.1398 5.03036L25.0535 6.66281L20.5657 10.4795ZM27.9106 4.22564L26.9538 5.03036L25.0535 3.40942L25.9969 2.59319C26.1222 2.48544 26.2713 2.39992 26.4355 2.34156C26.5997 2.28319 26.7759 2.25314 26.9538 2.25314C27.1317 2.25314 27.3078 2.28319 27.4721 2.34156C27.6363 2.39992 27.7853 2.48544 27.9106 2.59319C28.0369 2.70007 28.1372 2.82721 28.2056 2.9673C28.274 3.10739 28.3093 3.25765 28.3093 3.40942C28.3093 3.56118 28.274 3.71144 28.2056 3.85153C28.1372 3.99162 28.0369 4.11877 27.9106 4.22564Z" fill="#1D1B20" stroke="black" stroke-width="0.00064"/>
    </svg>
    