<svg width="31" height="31" viewBox="0 0 31 31" fill="none" xmlns="http://www.w3.org/2000/svg">
    <path d="M15.4172 2.09338e-07C12.0889 -1.42093e-05 9.48051 -2.8683e-05 7.44535 0.273593C5.36224 0.55366 3.71849 1.1381 2.42829 2.42829C1.1381 3.71849 0.55366 5.36224 0.273593 7.44535C-2.8683e-05 9.48051 -1.42093e-05 12.0889 2.09338e-07 15.4172V15.5828C-1.42093e-05 18.9112 -2.8683e-05 21.5195 0.273593 23.5547C0.55366 25.6377 1.1381 27.2816 2.42829 28.5718C3.71849 29.8619 5.36224 30.4463 7.44535 30.7265C9.48051 31 12.0889 31 15.4172 31H15.5828C18.9112 31 21.5195 31 23.5547 30.7265C25.6377 30.4463 27.2816 29.8619 28.5718 28.5718C29.8619 27.2816 30.4463 25.6377 30.7265 23.5547C31 21.5195 31 18.9112 31 15.5828V13.3372C31 12.74 30.5158 12.2558 29.9186 12.2558C29.3214 12.2558 28.8372 12.74 28.8372 13.3372V15.5C28.8372 18.929 28.8349 21.392 28.5829 23.2664C28.3352 25.1097 27.8638 26.221 27.0424 27.0424C26.221 27.8638 25.1097 28.3352 23.2664 28.5829C21.392 28.8349 18.929 28.8372 15.5 28.8372C12.0709 28.8372 9.60792 28.8349 7.73353 28.5829C5.89025 28.3352 4.77897 27.8638 3.95762 27.0424C3.13625 26.221 2.66492 25.1097 2.41709 23.2664C2.16508 21.392 2.16279 18.929 2.16279 15.5C2.16279 12.0709 2.16508 9.60792 2.41709 7.73353C2.66492 5.89025 3.13625 4.77897 3.95762 3.95762C4.77897 3.13625 5.89025 2.66492 7.73353 2.41709C9.60792 2.16508 12.0709 2.16279 15.5 2.16279H17.6628C18.26 2.16279 18.7442 1.67863 18.7442 1.0814C18.7442 0.484163 18.26 2.09338e-07 17.6628 2.09338e-07H15.4172Z" fill="#1D1B20" stroke="black" stroke-width="0.00064"/>
    <path fill-rule="evenodd" clip-rule="evenodd" d="M25.5931 0C22.6068 0 20.1861 2.42078 20.1861 5.40698C20.1861 8.39317 22.6068 10.814 25.5931 10.814C28.5793 10.814 31 8.39317 31 5.40698C31 2.42078 28.5793 0 25.5931 0ZM22.3489 5.40698C22.3489 3.61526 23.8014 2.16279 25.5931 2.16279C27.3847 2.16279 28.8373 3.61526 28.8373 5.40698C28.8373 7.19869 27.3847 8.65116 25.5931 8.65116C23.8014 8.65116 22.3489 7.19869 22.3489 5.40698Z" fill="#1D1B20" stroke="black" stroke-width="0.00064"/>
    </svg>
    