<svg width="32" height="32" viewBox="0 0 32 32" fill="none" xmlns="http://www.w3.org/2000/svg">
    <path d="M14.8965 30.7136C14.8965 30.3974 15.0179 30.0941 15.2339 29.8705C15.4499 29.6469 15.743 29.5213 16.0485 29.5213C18.9459 29.5214 21.7559 28.4937 24.01 26.6096C26.2642 24.7254 27.8264 22.0986 28.4364 19.167C29.0464 16.2353 28.6672 13.1758 27.3621 10.4983C26.057 7.8209 23.9048 5.68724 21.2641 4.45295C18.6235 3.21866 15.6539 2.95829 12.8503 3.71522C10.0467 4.47216 7.57836 6.20068 5.85669 8.61273C4.13502 11.0248 3.26399 13.9747 3.38877 16.9708C3.51355 19.9669 4.62659 22.8282 6.54241 25.078V20.8858C6.54241 20.5696 6.66378 20.2664 6.87982 20.0428C7.09585 19.8192 7.38886 19.6935 7.69438 19.6935C7.9999 19.6935 8.29291 19.8192 8.50895 20.0428C8.72499 20.2664 8.84635 20.5696 8.84635 20.8858V27.6311C8.84635 27.7878 8.81651 27.943 8.75852 28.0878C8.70053 28.2325 8.61554 28.364 8.50841 28.4748C8.40127 28.5855 8.2741 28.6733 8.13416 28.7331C7.99422 28.793 7.84426 28.8236 7.69285 28.8234H1.1773C0.871779 28.8234 0.57877 28.6978 0.362734 28.4742C0.146698 28.2506 0.0253296 27.9473 0.0253296 27.6311C0.0253296 27.3149 0.146698 27.0116 0.362734 26.788C0.57877 26.5644 0.871779 26.4388 1.1773 26.4388H4.63321C2.42484 23.7464 1.17107 20.3541 1.07947 16.8236C0.987866 13.2931 2.06393 9.8361 4.1295 7.0249C6.19507 4.21369 9.12629 2.2169 12.4379 1.3651C15.7494 0.513303 19.2427 0.857581 22.3395 2.34094C25.4362 3.8243 27.9507 6.35777 29.4665 9.52194C30.9824 12.6861 31.4087 16.2912 30.675 19.7404C29.9413 23.1895 28.0915 26.2759 25.4319 28.4886C22.7723 30.7012 19.4623 31.9075 16.05 31.9075C15.8985 31.9077 15.7484 31.877 15.6083 31.8171C15.4683 31.7572 15.3411 31.6692 15.2339 31.5583C15.1268 31.4474 15.0418 31.3157 14.9839 31.1708C14.926 31.0258 14.8963 30.8705 14.8965 30.7136ZM19.3124 23.0606L15.2313 18.8398C15.0154 18.6157 14.894 18.3122 14.8934 17.9957V9.72903C14.8934 9.41281 15.0148 9.10954 15.2308 8.88594C15.4469 8.66234 15.7399 8.53672 16.0454 8.53672C16.3509 8.53672 16.6439 8.66234 16.86 8.88594C17.076 9.10954 17.1974 9.41281 17.1974 9.72903V17.5013L20.939 21.3739C21.0489 21.4839 21.1366 21.6155 21.197 21.761C21.2573 21.9065 21.289 22.063 21.2902 22.2213C21.2915 22.3796 21.2623 22.5366 21.2043 22.6831C21.1463 22.8296 21.0607 22.9627 20.9525 23.0746C20.8443 23.1865 20.7156 23.275 20.574 23.3348C20.4324 23.3947 20.2807 23.4248 20.1277 23.4234C19.9748 23.4219 19.8236 23.389 19.6831 23.3264C19.5426 23.2638 19.4155 23.173 19.3093 23.059L19.3124 23.0606Z" fill="#1D1B20"/>
    </svg>
    