<svg width="32" height="32" viewBox="0 0 32 32" fill="none" xmlns="http://www.w3.org/2000/svg">
    <path fill-rule="evenodd" clip-rule="evenodd" d="M25.8604 2.40142C25.8604 1.45027 25.0893 0.679199 24.1381 0.679199C23.187 0.679199 22.4159 1.45027 22.4159 2.40142V4.12364H1.74926C0.798112 4.12364 0.0270386 4.89472 0.0270386 5.84587C0.0270386 6.79701 0.798112 7.56809 1.74926 7.56809H22.4159V9.29031C22.4159 10.2415 23.187 11.0125 24.1381 11.0125C25.0893 11.0125 25.8604 10.2415 25.8604 9.29031V7.56809H29.3048C30.256 7.56809 31.027 6.79701 31.027 5.84587C31.027 4.89472 30.256 4.12364 29.3048 4.12364H25.8604V2.40142ZM1.74926 14.457C0.798112 14.457 0.0270386 15.228 0.0270386 16.1792C0.0270386 17.1304 0.798112 17.9014 1.74926 17.9014H5.19371V19.6236C5.19371 20.5748 5.96478 21.3459 6.91593 21.3459C7.86708 21.3459 8.63815 20.5748 8.63815 19.6236V17.9014H29.3048C30.256 17.9014 31.027 17.1304 31.027 16.1792C31.027 15.228 30.256 14.457 29.3048 14.457H8.63815V12.7348C8.63815 11.7836 7.86708 11.0125 6.91593 11.0125C5.96478 11.0125 5.19371 11.7836 5.19371 12.7348V14.457H1.74926ZM0.0270386 26.5125C0.0270386 25.5613 0.798112 24.7903 1.74926 24.7903H22.4159V23.0681C22.4159 22.1169 23.187 21.3459 24.1381 21.3459C25.0893 21.3459 25.8604 22.1169 25.8604 23.0681V24.7903H29.3048C30.256 24.7903 31.027 25.5613 31.027 26.5125C31.027 27.4637 30.256 28.2348 29.3048 28.2348H25.8604V29.957C25.8604 30.9082 25.0893 31.6792 24.1381 31.6792C23.187 31.6792 22.4159 30.9082 22.4159 29.957V28.2348H1.74926C0.798112 28.2348 0.0270386 27.4637 0.0270386 26.5125Z" fill="#1D1B20"/>
    </svg>
    