<svg width="32" height="32" viewBox="0 0 32 32" fill="none" xmlns="http://www.w3.org/2000/svg">
    <path fill-rule="evenodd" clip-rule="evenodd" d="M31.3333 15.8333C31.3333 24.3937 24.3937 31.3333 15.8333 31.3333C7.2729 31.3333 0.333313 24.3937 0.333313 15.8333C0.333313 7.27291 7.2729 0.333328 15.8333 0.333328C24.3937 0.333328 31.3333 7.27291 31.3333 15.8333ZM20.4833 11.1833C20.4833 13.7515 18.4015 15.8333 15.8333 15.8333C13.2651 15.8333 11.1833 13.7515 11.1833 11.1833C11.1833 8.61521 13.2651 6.53333 15.8333 6.53333C18.4015 6.53333 20.4833 8.61521 20.4833 11.1833ZM15.8333 29.0083C18.5985 29.0083 21.1648 28.1564 23.284 26.7007C24.2201 26.0577 24.62 24.8329 24.0759 23.8363C22.9478 21.7703 20.6231 20.4833 15.8332 20.4833C11.0433 20.4833 8.71877 21.7701 7.59063 23.8363C7.04644 24.8329 7.44642 26.0576 8.3824 26.7005C10.5016 28.1563 13.068 29.0083 15.8333 29.0083Z" fill="#178669"/>
    </svg>
    