<svg width="200" height="168" viewBox="0 0 200 168" fill="none" xmlns="http://www.w3.org/2000/svg">
    <path d="M156 32H12C8.81849 32.0036 5.76831 33.269 3.51864 35.5186C1.26898 37.7683 0.00355467 40.8185 0 44V156C0.00355467 159.182 1.26898 162.232 3.51864 164.481C5.76831 166.731 8.81849 167.996 12 168H156C159.182 167.996 162.232 166.731 164.481 164.481C166.731 162.232 167.996 159.182 168 156V44C167.996 40.8185 166.731 37.7683 164.481 35.5186C162.232 33.269 159.182 32.0036 156 32ZM160 156C159.999 157.06 159.577 158.077 158.827 158.827C158.077 159.577 157.06 159.999 156 160H12C10.9395 159.999 9.92279 159.577 9.17291 158.827C8.42303 158.077 8.00121 157.06 8 156V44C8.00121 42.9395 8.42303 41.9228 9.17291 41.1729C9.92279 40.423 10.9395 40.0012 12 40H156C157.06 40.0012 158.077 40.423 158.827 41.1729C159.577 41.9228 159.999 42.9395 160 44V156ZM200 12V132C200 133.061 199.579 134.078 198.828 134.828C198.078 135.579 197.061 136 196 136C194.939 136 193.922 135.579 193.172 134.828C192.421 134.078 192 133.061 192 132V12C191.999 10.9395 191.577 9.9228 190.827 9.17291C190.077 8.42303 189.06 8.00121 188 8H36C34.9391 8 33.9217 7.57857 33.1716 6.82843C32.4214 6.07828 32 5.06087 32 4C32 2.93913 32.4214 1.92172 33.1716 1.17157C33.9217 0.421428 34.9391 0 36 0H188C191.182 0.00355467 194.232 1.26898 196.481 3.51865C198.731 5.76831 199.996 8.81849 200 12Z" fill="black"/>
    <path d="M79.8892 80.4545L60.8196 135H43.7741L24.7045 80.4545H40.6847L52.0128 119.482H52.581L63.8736 80.4545H79.8892ZM87.4886 135V123.92L113.376 99.9503C115.578 97.8196 117.425 95.902 118.916 94.1974C120.431 92.4929 121.58 90.8239 122.361 89.1903C123.142 87.5331 123.533 85.7457 123.533 83.8281C123.533 81.6974 123.047 79.8627 122.077 78.3239C121.106 76.7614 119.78 75.5658 118.099 74.7372C116.419 73.8849 114.513 73.4588 112.382 73.4588C110.157 73.4588 108.215 73.9086 106.558 74.8082C104.901 75.7079 103.623 76.9981 102.723 78.679C101.823 80.3598 101.374 82.3603 101.374 84.6804H86.7784C86.7784 79.9219 87.8556 75.7907 90.0099 72.2869C92.1643 68.7831 95.1828 66.0724 99.0653 64.1548C102.948 62.2372 107.422 61.2784 112.489 61.2784C117.697 61.2784 122.231 62.2017 126.089 64.0483C129.972 65.8712 132.991 68.4044 135.145 71.6477C137.299 74.8911 138.376 78.608 138.376 82.7983C138.376 85.5445 137.832 88.2552 136.743 90.9304C135.678 93.6056 133.772 96.5767 131.026 99.8438C128.279 103.087 124.409 106.982 119.413 111.527L108.795 121.932V122.429H139.335V135H87.4886Z" fill="black"/>
    </svg>
    