<svg width="200" height="168" viewBox="0 0 200 168" fill="none" xmlns="http://www.w3.org/2000/svg">
    <path d="M156 32H12C8.81849 32.0036 5.76831 33.269 3.51864 35.5186C1.26898 37.7683 0.00355467 40.8185 0 44V156C0.00355467 159.182 1.26898 162.232 3.51864 164.481C5.76831 166.731 8.81849 167.996 12 168H156C159.182 167.996 162.232 166.731 164.481 164.481C166.731 162.232 167.996 159.182 168 156V44C167.996 40.8185 166.731 37.7683 164.481 35.5186C162.232 33.269 159.182 32.0036 156 32ZM160 156C159.999 157.06 159.577 158.077 158.827 158.827C158.077 159.577 157.06 159.999 156 160H12C10.9395 159.999 9.92279 159.577 9.17291 158.827C8.42303 158.077 8.00121 157.06 8 156V44C8.00121 42.9395 8.42303 41.9228 9.17291 41.1729C9.92279 40.423 10.9395 40.0012 12 40H156C157.06 40.0012 158.077 40.423 158.827 41.1729C159.577 41.9228 159.999 42.9395 160 44V156ZM200 12V132C200 133.061 199.579 134.078 198.828 134.828C198.078 135.579 197.061 136 196 136C194.939 136 193.922 135.579 193.172 134.828C192.421 134.078 192 133.061 192 132V12C191.999 10.9395 191.577 9.9228 190.827 9.17291C190.077 8.42303 189.06 8.00121 188 8H36C34.9391 8 33.9217 7.57857 33.1716 6.82843C32.4214 6.07828 32 5.06087 32 4C32 2.93913 32.4214 1.92172 33.1716 1.17157C33.9217 0.421428 34.9391 0 36 0H188C191.182 0.00355467 194.232 1.26898 196.481 3.51865C198.731 5.76831 199.996 8.81849 200 12Z" fill="black"/>
    </svg>
    