<svg width="210" height="178" viewBox="0 0 210 178" fill="none" xmlns="http://www.w3.org/2000/svg">
    <path d="M161.008 37H17.0078C13.8263 37.0036 10.7761 38.269 8.52646 40.5186C6.27679 42.7683 5.01137 45.8185 5.00781 49V161C5.01137 164.182 6.27679 167.232 8.52646 169.481C10.7761 171.731 13.8263 172.996 17.0078 173H161.008C164.189 172.996 167.239 171.731 169.489 169.481C171.739 167.232 173.004 164.182 173.008 161V49C173.004 45.8185 171.739 42.7683 169.489 40.5186C167.239 38.269 164.189 37.0036 161.008 37ZM165.008 161C165.007 162.06 164.585 163.077 163.835 163.827C163.085 164.577 162.068 164.999 161.008 165H17.0078C15.9473 164.999 14.9306 164.577 14.1807 163.827C13.4308 163.077 13.009 162.06 13.0078 161V49C13.009 47.9395 13.4308 46.9228 14.1807 46.1729C14.9306 45.423 15.9473 45.0012 17.0078 45H161.008C162.068 45.0012 163.085 45.423 163.835 46.1729C164.585 46.9228 165.007 47.9395 165.008 49V161ZM205.008 17V137C205.008 138.061 204.586 139.078 203.836 139.828C203.086 140.579 202.069 141 201.008 141C199.947 141 198.93 140.579 198.179 139.828C197.429 139.078 197.008 138.061 197.008 137V17C197.007 15.9395 196.585 14.9228 195.835 14.1729C195.085 13.423 194.068 13.0012 193.008 13H41.0078C39.9469 13 38.9295 12.5786 38.1794 11.8284C37.4292 11.0783 37.0078 10.0609 37.0078 9C37.0078 7.93913 37.4292 6.92172 38.1794 6.17157C38.9295 5.42143 39.9469 5 41.0078 5H193.008C196.189 5.00355 199.239 6.26898 201.489 8.51865C203.739 10.7683 205.004 13.8185 205.008 17Z" fill="black" stroke="black" stroke-width="8.96"/>
    </svg>
    