<svg width="32" height="28" viewBox="0 0 32 28" fill="none" xmlns="http://www.w3.org/2000/svg">
    <path fill-rule="evenodd" clip-rule="evenodd" d="M16 16C14.896 16 14 15.104 14 14C14 12.896 14.896 12 16 12C17.104 12 18 12.896 18 14C18 15.104 17.104 16 16 16ZM16 10C13.791 10 12 11.791 12 14C12 16.209 13.791 18 16 18C18.209 18 20 16.209 20 14C20 11.791 18.209 10 16 10ZM16 26C14.896 26 14 25.104 14 24C14 22.896 14.896 22 16 22C17.104 22 18 22.896 18 24C18 25.104 17.104 26 16 26ZM16 20C13.791 20 12 21.791 12 24C12 26.209 13.791 28 16 28C18.209 28 20 26.209 20 24C20 21.791 18.209 20 16 20ZM16 6C14.896 6 14 5.104 14 4C14 2.896 14.896 2 16 2C17.104 2 18 2.896 18 4C18 5.104 17.104 6 16 6ZM16 0C13.791 0 12 1.791 12 4C12 6.209 13.791 8 16 8C18.209 8 20 6.209 20 4C20 1.791 18.209 0 16 0ZM28 16C26.896 16 26 15.104 26 14C26 12.896 26.896 12 28 12C29.104 12 30 12.896 30 14C30 15.104 29.104 16 28 16ZM28 10C25.791 10 24 11.791 24 14C24 16.209 25.791 18 28 18C30.209 18 32 16.209 32 14C32 11.791 30.209 10 28 10ZM4 6C2.896 6 2 5.104 2 4C2 2.896 2.896 2 4 2C5.104 2 6 2.896 6 4C6 5.104 5.104 6 4 6ZM4 0C1.791 0 0 1.791 0 4C0 6.209 1.791 8 4 8C6.209 8 8 6.209 8 4C8 1.791 6.209 0 4 0ZM28 26C26.896 26 26 25.104 26 24C26 22.896 26.896 22 28 22C29.104 22 30 22.896 30 24C30 25.104 29.104 26 28 26ZM28 20C25.791 20 24 21.791 24 24C24 26.209 25.791 28 28 28C30.209 28 32 26.209 32 24C32 21.791 30.209 20 28 20ZM4 26C2.896 26 2 25.104 2 24C2 22.896 2.896 22 4 22C5.104 22 6 22.896 6 24C6 25.104 5.104 26 4 26ZM4 20C1.791 20 0 21.791 0 24C0 26.209 1.791 28 4 28C6.209 28 8 26.209 8 24C8 21.791 6.209 20 4 20ZM28 2C29.104 2 30 2.896 30 4C30 5.104 29.104 6 28 6C26.896 6 26 5.104 26 4C26 2.896 26.896 2 28 2ZM28 8C30.209 8 32 6.209 32 4C32 1.791 30.209 0 28 0C25.791 0 24 1.791 24 4C24 6.209 25.791 8 28 8ZM4 16C2.896 16 2 15.104 2 14C2 12.896 2.896 12 4 12C5.104 12 6 12.896 6 14C6 15.104 5.104 16 4 16ZM4 10C1.791 10 0 11.791 0 14C0 16.209 1.791 18 4 18C6.209 18 8 16.209 8 14C8 11.791 6.209 10 4 10Z" fill="black"/>
    </svg>
    