<svg width="21" height="22" viewBox="0 0 21 22" fill="none" xmlns="http://www.w3.org/2000/svg">
    <path d="M19.0199 15.265L19.7254 11.1852C19.9016 10.1662 19.118 9.2342 18.085 9.2342H12.9039C12.3904 9.2342 11.9994 8.77328 12.0825 8.26598L12.7452 4.22142C12.8528 3.56435 12.8221 2.892 12.6549 2.24752C12.5164 1.71364 12.1045 1.28495 11.5628 1.11093L11.4178 1.06435C11.0904 0.959182 10.7331 0.983652 10.4244 1.13239C10.0847 1.29611 9.8361 1.59473 9.744 1.94989L9.2683 3.78374C9.1169 4.36723 8.8965 4.93045 8.61218 5.46262C8.19683 6.24017 7.55465 6.86246 6.88711 7.43769L5.44838 8.67749C5.04272 9.0271 4.82968 9.5506 4.87584 10.0844L5.68801 19.4771C5.7625 20.3386 6.4828 21 7.34658 21H11.9952C15.4765 21 18.4475 18.5744 19.0199 15.265Z" fill="#1D1B20" stroke="#1D1B20" stroke-width="2"/>
    <path fill-rule="evenodd" clip-rule="evenodd" d="M0.71767 8.48508C1.11893 8.46777 1.46261 8.76963 1.49721 9.1698L2.46881 20.4063C2.53122 21.1281 1.96268 21.7502 1.23671 21.7502C0.55289 21.7502 0 21.1954 0 20.5129V9.2344C0 8.83275 0.3164 8.5024 0.71767 8.48508Z" fill="#1D1B20" stroke="black" stroke-width="0.00024"/>
    </svg>
    