<svg width="64" height="64" viewBox="0 0 64 64" fill="none" xmlns="http://www.w3.org/2000/svg">
    <path d="M32.0038 44.5655L8.56517 32.0047L18.1437 26.8667L13.8621 24.572L0.00195312 32.0047L32.0038 49.1499L64.001 32.0047L50.1409 24.572L45.8684 26.8667L55.4423 32.0047L32.0038 44.5655Z" fill="#1E1C21"/>
    <path d="M32.0038 59.416L8.56517 46.8552L18.1437 41.7172L13.8621 39.4225L0.00195312 46.8552L32.0038 64.0003L64.001 46.8552L50.1409 39.4225L45.8684 41.7172L55.4423 46.8552L32.0038 59.416Z" fill="#1E1C21"/>
    <path d="M32.0038 -0.000831604L0.00195312 17.1443L32.0038 34.2844L64.001 17.1393L32.0038 -0.000831604ZM32.0038 4.58351L55.4423 17.1443L32.0038 29.7051L8.56517 17.1443L32.0038 4.58351Z" fill="#1E1C21"/>
    </svg>
    