<svg width="33" height="34" viewBox="0 0 33 34" fill="none" xmlns="http://www.w3.org/2000/svg">
    <path d="M27.6667 2.33333H5.66667C3.64162 2.33333 2 3.97496 2 6V28C2 30.025 3.64162 31.6667 5.66667 31.6667H27.6667C29.6917 31.6667 31.3333 30.025 31.3333 28V6C31.3333 3.97496 29.6917 2.33333 27.6667 2.33333Z" stroke="#1D1B20" stroke-width="3" stroke-linecap="round" stroke-linejoin="round"/>
    <path d="M11.046 17.6767C12.3532 15.4749 14.7552 14 17.5 14C21.6421 14 25 17.3579 25 21.5C25 22.0523 25.4477 22.5 26 22.5C26.5523 22.5 27 22.0523 27 21.5C27 16.2533 22.7467 12 17.5 12C14.3186 12 11.5039 13.5634 9.78 15.9628L9.24303 12.9175C9.14713 12.3736 8.62847 12.0104 8.08458 12.1063C7.54068 12.2022 7.17751 12.7209 7.27342 13.2648L8.31531 19.1736C8.36136 19.4348 8.50928 19.667 8.72654 19.8192C9.0104 20.0179 9.38776 20.0542 9.70227 19.9445L15.3826 18.9429C15.9265 18.847 16.2897 18.3284 16.1938 17.7845C16.0979 17.2406 15.5792 16.8774 15.0353 16.9733L11.046 17.6767Z" fill="#1D1B20"/>
    </svg>
    