<svg width="214" height="260" viewBox="0 0 214 260" fill="none" xmlns="http://www.w3.org/2000/svg">
    <path d="M46.1241 25.4894V13.1632C46.1241 9.67204 47.2479 6.32395 49.2483 3.85538C51.2487 1.38683 53.9618 -1.90735e-06 56.7908 -1.90735e-06C59.6197 -1.90735e-06 62.3329 1.38683 64.3332 3.85538C66.3336 6.32395 67.4574 9.67204 67.4574 13.1632V25.4894C67.4574 28.9805 66.3336 32.3285 64.3332 34.7971C62.3329 37.2657 59.6197 38.6525 56.7908 38.6525C53.9618 38.6525 51.2487 37.2657 49.2483 34.7971C47.2479 32.3285 46.1241 28.9805 46.1241 25.4894ZM10.7908 75.3049H25.1241C27.9531 75.3049 30.6662 73.9181 32.6666 71.4495C34.667 68.9811 35.7908 65.6329 35.7908 62.1419C35.7908 58.6508 34.667 55.3027 32.6666 52.8341C30.6662 50.3655 27.9531 48.9787 25.1241 48.9787H10.7908C7.96184 48.9787 5.24873 50.3655 3.24834 52.8341C1.24796 55.3027 0.124146 58.6508 0.124146 62.1419C0.124146 65.6329 1.24796 68.9811 3.24834 71.4495C5.24873 73.9181 7.96184 75.3049 10.7908 75.3049ZM216.791 127.957V246.426C216.791 249.917 215.667 253.265 213.666 255.733C211.666 258.202 208.953 259.589 206.124 259.589H56.7908C53.9618 259.589 51.2487 258.202 49.2483 255.733C47.2479 253.265 46.1241 249.917 46.1241 246.426V62.1419C46.1241 58.6508 47.2479 55.3027 49.2483 52.8341C51.2487 50.3655 53.9618 48.9787 56.7908 48.9787H152.791C155.591 49.1427 158.258 50.5066 160.332 52.8355L213.665 118.652C215.585 121.185 216.696 124.491 216.791 127.957ZM195.457 141.121H152.791C149.962 141.121 147.249 139.734 145.248 137.265C143.248 134.797 142.124 131.449 142.124 127.957V75.3049H67.4574V233.262H195.457V141.121Z" fill="#1D1B20" stroke="#1D1B20" stroke-width="0.00256"/>
    </svg>
    