<svg width="18" height="18" viewBox="0 0 18 18" fill="none" xmlns="http://www.w3.org/2000/svg">
    <path fill-rule="evenodd" clip-rule="evenodd" d="M14 0.25C14.4142 0.25 14.75 0.58579 14.75 1V14.75L16.4 12.55C16.6485 12.2186 17.1186 12.1515 17.45 12.4C17.7814 12.6485 17.8485 13.1186 17.6 13.45L14.6 17.45C14.4063 17.7083 14.0691 17.8136 13.7628 17.7115C13.4566 17.6094 13.25 17.3228 13.25 17V1C13.25 0.58579 13.5858 0.25 14 0.25ZM4.25 3C4.25 2.58579 4.58579 2.25 5 2.25H10C10.4142 2.25 10.75 2.58579 10.75 3C10.75 3.41421 10.4142 3.75 10 3.75H5C4.58579 3.75 4.25 3.41421 4.25 3ZM2.25 8C2.25 7.5858 2.58579 7.25 3 7.25H10C10.4142 7.25 10.75 7.5858 10.75 8C10.75 8.4142 10.4142 8.75 10 8.75H3C2.58579 8.75 2.25 8.4142 2.25 8ZM0.25 13C0.25 12.5858 0.58579 12.25 1 12.25H10C10.4142 12.25 10.75 12.5858 10.75 13C10.75 13.4142 10.4142 13.75 10 13.75H1C0.58579 13.75 0.25 13.4142 0.25 13Z" fill="#1E1C21"/>
    </svg>
    