<svg width="20" height="20" viewBox="0 0 20 20" fill="none" xmlns="http://www.w3.org/2000/svg">
    <path fill-rule="evenodd" clip-rule="evenodd" d="M8.3094 0.250019H11.6908C11.9072 0.249879 12.0957 0.249759 12.2737 0.278189C12.977 0.390489 13.5856 0.829149 13.9146 1.46084C13.9978 1.62073 14.0573 1.79961 14.1256 2.00494L14.2373 2.33984C14.2562 2.39653 14.2616 2.41258 14.2661 2.42522C14.4413 2.90933 14.8953 3.23659 15.4099 3.24964C15.4235 3.24998 15.44 3.25004 15.5001 3.25004H18.5001C18.9143 3.25004 19.2501 3.58582 19.2501 4.00004C19.2501 4.41425 18.9143 4.75004 18.5001 4.75004H1.5C1.08579 4.75004 0.75 4.41425 0.75 4.00004C0.75 3.58582 1.08579 3.25004 1.5 3.25004H4.50008C4.56013 3.25004 4.5767 3.24998 4.59023 3.24964C5.10488 3.23659 5.55891 2.90936 5.73402 2.42524C5.73863 2.41251 5.74392 2.39681 5.76291 2.33984L5.87452 2.00496C5.94281 1.79964 6.00233 1.62073 6.08559 1.46084C6.41453 0.829149 7.02313 0.390489 7.72643 0.278189C7.90445 0.249759 8.093 0.249879 8.3094 0.250019ZM7.00815 3.25004C7.05966 3.14902 7.10531 3.04404 7.14458 2.93548C7.1565 2.90251 7.1682 2.86742 7.18322 2.82234L7.28302 2.52292C7.37419 2.24941 7.39519 2.19363 7.41601 2.15364C7.52566 1.94307 7.72853 1.79686 7.96296 1.75942C8.0075 1.75231 8.067 1.75004 8.3553 1.75004H11.6448C11.9331 1.75004 11.9927 1.75231 12.0372 1.75942C12.2716 1.79686 12.4745 1.94307 12.5842 2.15364C12.605 2.19363 12.626 2.2494 12.7171 2.52292L12.8169 2.82216L12.8556 2.9355C12.8949 3.04405 12.9405 3.14902 12.992 3.25004H7.00815Z" fill="white"/>
    <path d="M3.91509 6.45014C3.88754 6.03684 3.53016 5.72414 3.11686 5.75169C2.70357 5.77924 2.39086 6.13662 2.41841 6.54992L2.88186 13.5017C2.96736 14.7844 3.03642 15.8205 3.19839 16.6336C3.36679 17.4789 3.65321 18.185 4.2448 18.7385C4.8364 19.2919 5.55995 19.5308 6.4146 19.6425C7.23662 19.7501 8.275 19.7501 9.5606 19.75H10.4395C11.7251 19.7501 12.7635 19.7501 13.5856 19.6425C14.4402 19.5308 15.1638 19.2919 15.7554 18.7385C16.347 18.185 16.6334 17.4789 16.8018 16.6336C16.9638 15.8206 17.0328 14.7844 17.1183 13.5017L17.5818 6.54992C17.6093 6.13662 17.2966 5.77924 16.8833 5.75169C16.47 5.72414 16.1126 6.03684 16.0851 6.45014L15.6251 13.3493C15.5353 14.6971 15.4713 15.6349 15.3307 16.3406C15.1943 17.025 15.004 17.3873 14.7306 17.6431C14.4572 17.8989 14.083 18.0647 13.391 18.1552C12.6776 18.2485 11.7376 18.25 10.3868 18.25H9.6134C8.2626 18.25 7.32255 18.2485 6.60915 18.1552C5.91715 18.0647 5.54299 17.8989 5.26958 17.6431C4.99617 17.3873 4.80583 17.025 4.66948 16.3406C4.52892 15.6349 4.46489 14.6971 4.37503 13.3493L3.91509 6.45014Z" fill="white"/>
    <path d="M7.42546 8.25379C7.83762 8.21249 8.2052 8.51329 8.2464 8.92539L8.7464 13.9254C8.7876 14.3376 8.4869 14.7051 8.0747 14.7463C7.66256 14.7875 7.29503 14.4868 7.25381 14.0747L6.75381 9.07469C6.7126 8.66249 7.01331 8.29499 7.42546 8.25379Z" fill="white"/>
    <path d="M12.5747 8.25379C12.9869 8.29499 13.2876 8.66249 13.2464 9.07469L12.7464 14.0747C12.7052 14.4868 12.3376 14.7875 11.9255 14.7463C11.5133 14.7051 11.2126 14.3376 11.2538 13.9254L11.7538 8.92539C11.795 8.51329 12.1626 8.21249 12.5747 8.25379Z" fill="white"/>
    </svg>
    