<svg width="15" height="15" viewBox="0 0 15 15" fill="none" xmlns="http://www.w3.org/2000/svg">
    <path
        d="M1 1.5V10.5V11.3438V12.5323L1.84965 11.7012L2.5664 11H13.5H14V10.5V1.5V1H13.5H1.5H1V1.5ZM0.5 13.7929V1.5C0.5 1.22116 0.593449 0.994908 0.794178 0.794178C0.994908 0.593449 1.22116 0.5 1.5 0.5H13.5C13.7788 0.5 14.0051 0.593449 14.2058 0.794178C14.4066 0.994908 14.5 1.22116 14.5 1.5V10.5C14.5 10.7788 14.4066 11.0051 14.2058 11.2058C14.0051 11.4066 13.7788 11.5 13.5 11.5H3H2.79289L2.64645 11.6464L0.5 13.7929Z"
        fill="white" stroke="white" />
</svg>
    