<svg width="20" height="20" viewBox="0 0 20 20" fill="none" xmlns="http://www.w3.org/2000/svg">
<path d="M9.28211 2.15105C9.51361 1.48513 9.62931 1.15218 9.80051 1.0599C9.94861 0.980032 10.1269 0.980032 10.2751 1.0599C10.4462 1.15218 10.5619 1.48513 10.7934 2.15105L12.3237 6.55344C12.3896 6.74297 12.4225 6.83773 12.4819 6.9083C12.5343 6.97064 12.6012 7.01923 12.6767 7.04983C12.7621 7.08448 12.8624 7.08652 13.063 7.09061L17.7228 7.18557C18.4277 7.19993 18.7801 7.20712 18.9208 7.34137C19.0425 7.45756 19.0976 7.62719 19.0674 7.79274C19.0326 7.98405 18.7517 8.19695 18.1899 8.62295L14.4758 11.4387C14.3159 11.56 14.236 11.6206 14.1872 11.6988C14.1441 11.768 14.1186 11.8466 14.1128 11.9278C14.1063 12.0198 14.1353 12.1158 14.1934 12.3079L15.5431 16.769C15.7472 17.4438 15.8493 17.7812 15.7651 17.9564C15.6922 18.1081 15.5479 18.2129 15.3811 18.2354C15.1884 18.2613 14.8991 18.06 14.3204 17.6573L10.4947 14.9952C10.33 14.8806 10.2477 14.8233 10.1582 14.801C10.0791 14.7814 9.99641 14.7814 9.91741 14.801C9.82791 14.8233 9.74551 14.8806 9.58081 14.9952L5.75516 17.6573C5.17648 18.06 4.88714 18.2613 4.69444 18.2354C4.52767 18.2129 4.38337 18.1081 4.31048 17.9564C4.22626 17.7812 4.32834 17.4438 4.53249 16.769L5.88214 12.3079C5.94024 12.1158 5.96929 12.0198 5.96275 11.9278C5.95697 11.8466 5.93143 11.768 5.88834 11.6988C5.83957 11.6206 5.75962 11.56 5.59973 11.4387L1.88569 8.62295C1.32389 8.19695 1.04299 7.98405 1.00812 7.79274C0.97793 7.62719 1.03305 7.45756 1.15478 7.34137C1.29542 7.20712 1.64785 7.19994 2.3527 7.18557L7.01251 7.09061C7.21311 7.08652 7.31342 7.08448 7.39888 7.04983C7.47437 7.01923 7.54125 6.97064 7.59368 6.9083C7.65304 6.83773 7.68598 6.74297 7.75186 6.55344L9.28211 2.15105Z" stroke="black" stroke-width="1.8" stroke-linecap="round" stroke-linejoin="round"/>
</svg>
