<svg width="210" height="201" viewBox="0 0 210 201" fill="none" xmlns="http://www.w3.org/2000/svg">
    <path d="M96.2443 14.2371C98.9065 6.57901 100.237 2.75008 102.206 1.68886C103.909 0.77038 105.959 0.77038 107.664 1.68886C109.631 2.75008 110.962 6.57901 113.624 14.2371L131.223 64.8646C131.98 67.0442 132.359 68.1339 133.042 68.9455C133.644 69.6624 134.414 70.2212 135.282 70.5731C136.264 70.9715 137.418 70.995 139.725 71.042L193.312 72.1341C201.419 72.2992 205.471 72.3819 207.089 73.9258C208.489 75.262 209.122 77.2127 208.775 79.1165C208.375 81.3166 205.145 83.7649 198.684 88.6639L155.972 121.045C154.133 122.44 153.214 123.137 152.653 124.036C152.157 124.832 151.864 125.736 151.797 126.67C151.722 127.728 152.056 128.832 152.724 131.041L168.246 182.344C170.593 190.104 171.767 193.984 170.799 195.999C169.96 197.743 168.301 198.948 166.383 199.207C164.167 199.505 160.84 197.19 154.185 192.559L110.189 161.945C108.295 160.627 107.349 159.968 106.319 159.712C105.41 159.486 104.459 159.486 103.55 159.712C102.521 159.968 101.573 160.627 99.6793 161.945L55.6843 192.559C49.0295 197.19 45.7021 199.505 43.4861 199.207C41.5682 198.948 39.9088 197.743 39.0705 195.999C38.102 193.984 39.2759 190.104 41.6236 182.344L57.1446 131.041C57.8128 128.832 58.1468 127.728 58.0716 126.67C58.0051 125.736 57.7114 124.832 57.2159 124.036C56.655 123.137 55.7356 122.44 53.8969 121.045L11.1854 88.6639C4.72473 83.7649 1.49438 81.3166 1.09338 79.1165C0.74619 77.2127 1.38007 75.262 2.77997 73.9258C4.39733 72.3819 8.45027 72.2993 16.556 72.1341L70.1439 71.042C72.4508 70.995 73.6043 70.9715 74.5871 70.5731C75.4552 70.2212 76.2244 69.6624 76.8273 68.9455C77.51 68.1339 77.8888 67.0442 78.6464 64.8646L96.2443 14.2371Z" fill="black" stroke="black" stroke-width="1.8" stroke-linecap="round" stroke-linejoin="round"/>
    </svg>
    