<svg width="89" height="89" viewBox="0 0 89 89" fill="none" xmlns="http://www.w3.org/2000/svg">
    <path d="M14.8333 11.125H74.1667C75.1502 11.125 76.0934 11.5157 76.7889 12.2111C77.4843 12.9066 77.875 13.8498 77.875 14.8333V74.1667C77.875 75.1502 77.4843 76.0934 76.7889 76.7889C76.0934 77.4843 75.1502 77.875 74.1667 77.875H14.8333C13.8498 77.875 12.9066 77.4843 12.2111 76.7889C11.5157 76.0934 11.125 75.1502 11.125 74.1667V14.8333C11.125 13.8498 11.5157 12.9066 12.2111 12.2111C12.9066 11.5157 13.8498 11.125 14.8333 11.125ZM18.5417 18.5417V70.4583H70.4583V18.5417H18.5417Z" fill="#1D1B20"/>
    <line x1="45" y1="28" x2="45" y2="62" stroke="#1D1B20" stroke-width="8"/>
    <line x1="61" y1="45" x2="27" y2="45" stroke="#1D1B20" stroke-width="8"/>
    </svg>
    