<svg width="18" height="20" viewBox="0 0 18 20" fill="none" xmlns="http://www.w3.org/2000/svg">
    <path d="M17 8V5C17 3.89543 16.1046 3 15 3H3C1.89543 3 1 3.89543 1 5V8M17 8V17C17 18.1046 16.1046 19 15 19H3C1.89543 19 1 18.1046 1 17V8M17 8H1M5 1V5M13 1V5" stroke="white" stroke-width="2" stroke-linecap="round"/>
    <path d="M5.66667 11H4.33333C4.14924 11 4 11.1492 4 11.3333V12.6667C4 12.8508 4.14924 13 4.33333 13H5.66667C5.85076 13 6 12.8508 6 12.6667V11.3333C6 11.1492 5.85076 11 5.66667 11Z" fill="white"/>
    <path d="M9.66667 11H8.33333C8.14924 11 8 11.1492 8 11.3333V12.6667C8 12.8508 8.14924 13 8.33333 13H9.66667C9.85076 13 10 12.8508 10 12.6667V11.3333C10 11.1492 9.85076 11 9.66667 11Z" fill="white"/>
    <path d="M13.6667 11H12.3333C12.1492 11 12 11.1492 12 11.3333V12.6667C12 12.8508 12.1492 13 12.3333 13H13.6667C13.8508 13 14 12.8508 14 12.6667V11.3333C14 11.1492 13.8508 11 13.6667 11Z" fill="white"/>
    </svg>
    