<svg width="192" height="192" viewBox="0 0 192 192" fill="none" xmlns="http://www.w3.org/2000/svg">
    <path d="M10.6667 -3.8147e-06H181.333C184.162 -3.8147e-06 186.875 1.1238 188.876 3.12419C190.876 5.12458 192 7.83769 192 10.6667V181.333C192 184.162 190.876 186.875 188.876 188.876C186.875 190.876 184.162 192 181.333 192H10.6667C7.83769 192 5.12458 190.876 3.12419 188.876C1.12381 186.875 0 184.162 0 181.333V10.6667C0 7.83769 1.12381 5.12458 3.12419 3.12419C5.12458 1.1238 7.83769 -3.8147e-06 10.6667 -3.8147e-06ZM21.3333 21.3333V170.667H170.667V21.3333H21.3333Z" fill="#1D1B20"/>
    </svg>
    