<svg
    width="19"
    height="18"
    viewBox="0 0 19 18"
    fill="none"
    xmlns="http://www.w3.org/2000/svg"
>
    <path
        d="M8.96124 8.70752H2.87966M2.70728 9.50472L1.70252 12.5061C1.15222 14.1499 0.877068 14.9718 1.07453 15.4779C1.246 15.9175 1.61429 16.2507 2.06874 16.3776C2.59205 16.5236 3.38245 16.1679 4.96325 15.4566L15.0976 10.8961C16.6406 10.2017 17.4121 9.85462 17.6505 9.37232C17.8577 8.95332 17.8577 8.46162 17.6505 8.04262C17.4121 7.56042 16.6406 7.21322 15.0976 6.51887L4.94577 1.95055C3.36973 1.24134 2.58172 0.88673 2.05893 1.0322C1.60491 1.15853 1.23666 1.49088 1.06459 1.92961C0.866448 2.4348 1.13866 3.25493 1.68309 4.89519L2.70923 7.98682C2.80273 8.26852 2.84949 8.40942 2.86794 8.55342C2.88432 8.68132 2.88415 8.81072 2.86745 8.93852C2.84862 9.08252 2.80151 9.22322 2.70728 9.50472Z"
        stroke="white"
        stroke-width="2"
        stroke-linecap="round"
        stroke-linejoin="round"
    />
</svg>