<svg width="31" height="31" viewBox="0 0 31 31" fill="none" xmlns="http://www.w3.org/2000/svg">
    <g clip-path="url(#clip0_1_79)">
    <path fill-rule="evenodd" clip-rule="evenodd" d="M12.9167 11.625C12.2033 11.625 11.625 12.2033 11.625 12.9167V27.125C11.625 27.8384 12.2033 28.4167 12.9167 28.4167H27.125C27.8384 28.4167 28.4167 27.8384 28.4167 27.125V12.9167C28.4167 12.2033 27.8384 11.625 27.125 11.625H12.9167ZM19.375 9.04167V3.875C19.375 3.16164 18.7967 2.58333 18.0833 2.58333H3.875C3.16164 2.58333 2.58333 3.16164 2.58333 3.875V18.0833C2.58333 18.7967 3.16164 19.375 3.875 19.375H9.04167V12.9167C9.04167 10.7766 10.7766 9.04167 12.9167 9.04167H19.375ZM21.9583 9.04167H27.125C29.2652 9.04167 31 10.7766 31 12.9167V27.125C31 29.2652 29.2652 31 27.125 31H12.9167C10.7766 31 9.04167 29.2652 9.04167 27.125V21.9583H3.875C1.7349 21.9583 0 20.2235 0 18.0833V3.875C0 1.7349 1.7349 0 3.875 0H18.0833C20.2235 0 21.9583 1.7349 21.9583 3.875V9.04167Z" fill="#1D1B20"/>
    </g>
    <defs>
    <clipPath id="clip0_1_79">
    <rect width="31" height="31" fill="white"/>
    </clipPath>
    </defs>
    </svg>
    