<svg width="19" height="20" viewBox="0 0 19 20" fill="none" xmlns="http://www.w3.org/2000/svg">
    <path d="M18.0001 4H1" stroke="black" stroke-width="1.5" stroke-linecap="round"/>
    <path d="M16.3332 6.5L15.8732 13.3991C15.6962 16.054 15.6077 17.3815 14.7427 18.1907C13.8777 19 12.5473 19 9.8865 19H9.1132C6.45235 19 5.12195 19 4.25694 18.1907C3.39194 17.3815 3.30344 16.054 3.12644 13.3991L2.6665 6.5" stroke="black" stroke-width="1.5" stroke-linecap="round"/>
    <path d="M7 9L7.5 14" stroke="black" stroke-width="1.5" stroke-linecap="round"/>
    <path d="M12 9L11.5 14" stroke="black" stroke-width="1.5" stroke-linecap="round"/>
    <path d="M4 4C4.05588 4 4.08382 4 4.10915 3.99936C4.93259 3.97849 5.65902 3.45491 5.93922 2.68032C5.94784 2.65649 5.95667 2.62999 5.97434 2.57697L6.07143 2.28571C6.15431 2.03708 6.19575 1.91276 6.25071 1.8072C6.47001 1.38607 6.87574 1.09364 7.34461 1.01877C7.46213 1 7.5932 1 7.8553 1H11.1447C11.4068 1 11.5379 1 11.6554 1.01877C12.1243 1.09364 12.53 1.38607 12.7493 1.8072C12.8043 1.91276 12.8457 2.03708 12.9286 2.28571L13.0257 2.57697C13.0433 2.62992 13.0522 2.65651 13.0608 2.68032C13.341 3.45491 14.0674 3.97849 14.8909 3.99936C14.9162 4 14.9441 4 15 4" stroke="black" stroke-width="1.5"/>
    </svg>
    