<svg width="13" height="16" viewBox="0 0 13 16" fill="none" xmlns="http://www.w3.org/2000/svg">
    <path fill-rule="evenodd" clip-rule="evenodd" d="M2.16667 0C0.970053 0 0 0.970053 0 2.16667V13.7222C0 14.9189 0.970053 15.8889 2.16667 15.8889H10.8333C12.03 15.8889 13 14.9189 13 13.7222V5.65387C13 5.07923 12.7717 4.52813 12.3654 4.1218L8.87821 0.634602C8.47188 0.228273 7.92076 0 7.34616 0H2.16667ZM1.44444 2.16667C1.44444 1.7678 1.7678 1.44444 2.16667 1.44444H6.5V5.05556C6.5 5.8533 7.14668 6.5 7.94444 6.5H11.5556V13.7222C11.5556 14.1211 11.2322 14.4444 10.8333 14.4444H2.16667C1.7678 14.4444 1.44444 14.1211 1.44444 13.7222V2.16667ZM11.2564 5.05556L7.94444 1.7436V5.05556H11.2564Z" fill="#0F0F0F"/>
    </svg>
    