<svg width="14" height="17" viewBox="0 0 14 17" fill="none" xmlns="http://www.w3.org/2000/svg">
    <path d="M0 14.1667V12.5H1.66667V6.66667C1.66667 5.51389 2.01389 4.49306 2.70833 3.60417C3.40278 2.70139 4.30556 2.11111 5.41667 1.83333V1.25C5.41667 0.902777 5.53472 0.611111 5.77083 0.374999C6.02083 0.125 6.31944 0 6.66667 0C7.01389 0 7.30556 0.125 7.54167 0.374999C7.79167 0.611111 7.91667 0.902777 7.91667 1.25V1.83333C9.02778 2.11111 9.93056 2.70139 10.625 3.60417C11.3194 4.49306 11.6667 5.51389 11.6667 6.66667V12.5H13.3333V14.1667H0ZM6.66667 16.6667C6.20833 16.6667 5.8125 16.5069 5.47917 16.1875C5.15972 15.8542 5 15.4583 5 15H8.33333C8.33333 15.4583 8.16667 15.8542 7.83333 16.1875C7.51389 16.5069 7.125 16.6667 6.66667 16.6667ZM3.33333 12.5H10V6.66667C10 5.75 9.67361 4.96528 9.02083 4.3125C8.36806 3.65972 7.58333 3.33333 6.66667 3.33333C5.75 3.33333 4.96528 3.65972 4.3125 4.3125C3.65972 4.96528 3.33333 5.75 3.33333 6.66667V12.5Z" fill="#1D1B20"/>
    </svg>
    