<svg width="18" height="18" viewBox="0 0 18 18" fill="none" xmlns="http://www.w3.org/2000/svg">
    <path d="M8.625 8.625C9.76875 8.625 10.8656 8.17065 11.6744 7.3619C12.4831 6.55315 12.9375 5.45625 12.9375 4.3125C12.9375 3.16875 12.4831 2.07185 11.6744 1.2631C10.8656 0.454352 9.76875 0 8.625 0C7.48125 0 6.38435 0.454352 5.5756 1.2631C4.76685 2.07185 4.3125 3.16875 4.3125 4.3125C4.3125 5.45625 4.76685 6.55315 5.5756 7.3619C6.38435 8.17065 7.48125 8.625 8.625 8.625ZM11.5 4.3125C11.5 5.075 11.1971 5.80627 10.6579 6.34543C10.1188 6.8846 9.3875 7.1875 8.625 7.1875C7.8625 7.1875 7.13123 6.8846 6.59207 6.34543C6.0529 5.80627 5.75 5.075 5.75 4.3125C5.75 3.55 6.0529 2.81873 6.59207 2.27957C7.13123 1.7404 7.8625 1.4375 8.625 1.4375C9.3875 1.4375 10.1188 1.7404 10.6579 2.27957C11.1971 2.81873 11.5 3.55 11.5 4.3125ZM17.25 15.8125C17.25 17.25 15.8125 17.25 15.8125 17.25H1.4375C1.4375 17.25 0 17.25 0 15.8125C0 14.375 1.4375 10.0625 8.625 10.0625C15.8125 10.0625 17.25 14.375 17.25 15.8125ZM15.8125 15.8068C15.8111 15.4531 15.5911 14.3894 14.6165 13.4147C13.6793 12.4775 11.9154 11.5 8.625 11.5C5.33313 11.5 3.57075 12.4775 2.6335 13.4147C1.65888 14.3894 1.44038 15.4531 1.4375 15.8068H15.8125Z" fill="black"/>
    </svg>
    