<svg width="13" height="13" viewBox="0 0 13 13" fill="none" xmlns="http://www.w3.org/2000/svg">
    <path
        d="M4.72139 13L4.46269 10.92C4.32255 10.8658 4.19051 10.8008 4.06654 10.725C3.94258 10.6492 3.82131 10.5679 3.70274 10.4812L1.77861 11.2937L0 8.20625L1.66542 6.93875C1.65464 6.86292 1.64925 6.78979 1.64925 6.71938V6.28062C1.64925 6.21021 1.65464 6.13708 1.66542 6.06125L0 4.79375L1.77861 1.70625L3.70274 2.51875C3.82131 2.43208 3.94527 2.35083 4.07463 2.275C4.20398 2.19917 4.33333 2.13417 4.46269 2.08L4.72139 0H8.27861L8.53731 2.08C8.67745 2.13417 8.80949 2.19917 8.93346 2.275C9.05742 2.35083 9.17869 2.43208 9.29726 2.51875L11.2214 1.70625L13 4.79375L11.3346 6.06125C11.3454 6.13708 11.3507 6.21021 11.3507 6.28062V6.71938C11.3507 6.78979 11.34 6.86292 11.3184 6.93875L12.9838 8.20625L11.2052 11.2937L9.29726 10.4812C9.17869 10.5679 9.05473 10.6492 8.92537 10.725C8.79602 10.8008 8.66667 10.8658 8.53731 10.92L8.27861 13H4.72139ZM6.53234 8.775C7.15755 8.775 7.69113 8.55292 8.13308 8.10875C8.57504 7.66458 8.79602 7.12833 8.79602 6.5C8.79602 5.87167 8.57504 5.33542 8.13308 4.89125C7.69113 4.44708 7.15755 4.225 6.53234 4.225C5.89635 4.225 5.36007 4.44708 4.92351 4.89125C4.48694 5.33542 4.26866 5.87167 4.26866 6.5C4.26866 7.12833 4.48694 7.66458 4.92351 8.10875C5.36007 8.55292 5.89635 8.775 6.53234 8.775Z"
        fill="#1D1B20" />
</svg>
    